<svg width="140" height="140" viewBox="0 0 140 140" fill="none" xmlns="http://www.w3.org/2000/svg">
<g clip-path="url(#clip0)">
<path d="M70 36.7838L20.0697 77.9461C20.0697 78.0042 20.0551 78.0897 20.0259 78.2062C19.9973 78.3218 19.9821 78.4057 19.9821 78.4653V120.147C19.9821 121.651 20.5323 122.956 21.6324 124.054C22.7322 125.153 24.0346 125.706 25.5399 125.706H58.8839V92.3599H81.1164V125.707H114.46C115.965 125.707 117.269 125.155 118.368 124.054C119.468 122.957 120.02 121.652 120.02 120.147V78.4653C120.02 78.2342 119.988 78.0596 119.932 77.9461L70 36.7838Z" fill="black"/>
<path d="M139.034 68.5673L120.018 52.763V17.3333C120.018 16.5233 119.758 15.8573 119.235 15.3359C118.717 14.8152 118.051 14.5549 117.239 14.5549H100.567C99.7556 14.5549 99.0899 14.8152 98.5682 15.3359C98.0478 15.8573 97.7878 16.5236 97.7878 17.3333V34.2663L76.6 16.551C74.7496 15.0458 72.5494 14.2933 70.0018 14.2933C67.4545 14.2933 65.2546 15.0458 63.4023 16.551L0.964753 68.5673C0.385954 69.0296 0.0687245 69.6519 0.00971927 70.4336C-0.0489818 71.2147 0.153278 71.8969 0.617108 72.4754L6.00088 78.9015C6.46471 79.4222 7.07179 79.7406 7.82457 79.8571C8.51955 79.9155 9.21454 79.7123 9.90952 79.2494L70 29.1429L130.091 79.2491C130.555 79.653 131.162 79.8547 131.915 79.8547H132.176C132.927 79.7403 133.533 79.4198 133.999 78.9003L139.384 72.4751C139.847 71.8954 140.05 71.2144 139.989 70.4324C139.93 69.6528 139.612 69.0305 139.034 68.5673Z" fill="black"/>
</g>
<defs>
<clipPath id="clip0">
<rect width="140" height="140" fill="white"/>
</clipPath>
</defs>
</svg>
